<svg width="23" height="14" viewBox="0 0 23 14" fill="none" xmlns="http://www.w3.org/2000/svg">
<path d="M7.81197 8.22258C8.49246 8.22258 9.04411 7.67093 9.04411 6.99044C9.04411 6.30995 8.49246 5.7583 7.81197 5.7583C7.13148 5.7583 6.57983 6.30995 6.57983 6.99044C6.57983 7.67093 7.13148 8.22258 7.81197 8.22258Z" fill="#A5A5A5"/>
<path d="M11.5085 8.22258C12.189 8.22258 12.7406 7.67093 12.7406 6.99044C12.7406 6.30995 12.189 5.7583 11.5085 5.7583C10.828 5.7583 10.2764 6.30995 10.2764 6.99044C10.2764 7.67093 10.828 8.22258 11.5085 8.22258Z" fill="#A5A5A5"/>
<path d="M15.2048 8.22258C15.8853 8.22258 16.4369 7.67093 16.4369 6.99044C16.4369 6.30995 15.8853 5.7583 15.2048 5.7583C14.5243 5.7583 13.9727 6.30995 13.9727 6.99044C13.9727 7.67093 14.5243 8.22258 15.2048 8.22258Z" fill="#A5A5A5"/>
<path d="M6.98216 13.9642C6.82032 13.9644 6.66004 13.9326 6.51051 13.8707C6.36099 13.8088 6.22518 13.7179 6.11088 13.6033L0.360901 7.85334C-0.1203 7.37214 -0.1203 6.59199 0.360901 6.11084L6.11088 0.360863C6.59208 -0.120288 7.37218 -0.120288 7.85338 0.360863C8.33448 0.842013 8.33448 1.62216 7.85338 2.10336L2.97468 6.98207L7.85338 11.8608C8.33448 12.3419 8.33448 13.1221 7.85338 13.6033C7.7391 13.7179 7.6033 13.8087 7.45379 13.8707C7.30427 13.9326 7.14399 13.9644 6.98216 13.9642ZM16.0178 13.9642C16.1797 13.9644 16.34 13.9326 16.4895 13.8707C16.639 13.8088 16.7748 13.7179 16.8891 13.6033L22.6391 7.85334C23.1203 7.37214 23.1203 6.59199 22.6391 6.11084L16.8891 0.360863C16.4079 -0.120288 15.6278 -0.120288 15.1466 0.360863C14.6655 0.842013 14.6655 1.62216 15.1466 2.10336L20.0253 6.98207L15.1466 11.8608C14.6655 12.3419 14.6655 13.1221 15.1466 13.6033C15.2609 13.7179 15.3967 13.8087 15.5462 13.8707C15.6957 13.9326 15.856 13.9644 16.0178 13.9642Z" fill="#A5A5A5"/>
</svg>
