<svg width="20" height="20" viewBox="0 0 20 20" fill="none" xmlns="http://www.w3.org/2000/svg">
<path d="M6.89995 10L2.09995 5.30005C1.89995 5.10005 1.89995 4.80005 2.09995 4.60005L4.49995 2.20005C4.69995 2.00005 4.99995 2.00005 5.19995 2.20005L9.89995 6.90005" stroke="#F4F4F4" stroke-miterlimit="10"/>
<path d="M13 10L17.8 14.8C18 15 18 15.3 17.8 15.5L15.4 17.9C15.2 18.1 14.9 18.1 14.7 17.9L10 13.1" stroke="#F4F4F4" stroke-miterlimit="10"/>
<path d="M14.0574 17.2627L13.0674 16.2727L15.1181 14.2222L16.108 15.2121L14.0574 17.2627Z" fill="#F4F4F4"/>
<path d="M12.0002 15.1621L11.0103 14.1721L12.071 13.1115L13.0609 14.1015L12.0002 15.1621Z" fill="#F4F4F4"/>
<path d="M5.87646 8.96704L4.88653 7.97707L6.93718 5.9265L7.92711 6.91647L5.87646 8.96704Z" fill="#F4F4F4"/>
<path d="M3.81836 7.00952L2.82843 6.01955L3.88911 4.95891L4.87904 5.94888L3.81836 7.00952Z" fill="#F4F4F4"/>
<path d="M14 2.9L14.6 2.3C15 1.9 15.6 1.9 16 2.3L17.7 4C18.1 4.4 18.1 5 17.7 5.4L17.1 6" stroke="#F4F4F4" stroke-miterlimit="10" stroke-linecap="round" stroke-linejoin="round"/>
<path d="M13.217 3.78662L16.2575 6.82723L6.71144 16.373L3.67093 13.3324L13.217 3.78662Z" stroke="#F4F4F4" stroke-miterlimit="10" stroke-linecap="round" stroke-linejoin="round"/>
<path d="M4.41943 14.5425L14.1773 4.78424L15.1673 5.77417L5.4094 15.5324L4.41943 14.5425Z" fill="#F4F4F4"/>
<path d="M2.1001 17.9L3.6001 13.3L6.7001 16.4L2.1001 17.9Z" stroke="#F4F4F4" stroke-miterlimit="10" stroke-linecap="round" stroke-linejoin="round"/>
<path d="M2.6001 16.3999L2.1001 17.8999L3.6001 17.3999L2.6001 16.3999Z" fill="#F4F4F4"/>
<path d="M17.3001 5.79995L16.1001 6.89995L13.1001 3.89995L14.2001 2.69995" stroke="#F4F4F4" stroke-miterlimit="10" stroke-linecap="round" stroke-linejoin="round"/>
</svg>
