<svg width="16" height="15" viewBox="0 0 16 15" fill="none" xmlns="http://www.w3.org/2000/svg">
<path d="M14.32 14.3157H1.68C1.23444 14.3157 0.807122 14.133 0.492061 13.8077C0.176999 13.4825 0 13.0413 0 12.5813V4.40479H16V12.5813C16 13.0413 15.823 13.4825 15.5079 13.8077C15.1929 14.133 14.7656 14.3157 14.32 14.3157ZM1.06667 5.506V12.5813C1.06667 12.7492 1.13129 12.9103 1.24631 13.029C1.30326 13.0878 1.37087 13.1345 1.44529 13.1663C1.5197 13.1981 1.59946 13.2145 1.68 13.2145H14.32C14.4827 13.2145 14.6387 13.1478 14.7537 13.029C14.8687 12.9103 14.9333 12.7492 14.9333 12.5813V5.506H1.06667Z" fill="#A5A5A5"/>
<path d="M16 5.50608H0V1.73441C0 1.27442 0.176999 0.833264 0.492061 0.507998C0.807122 0.182732 1.23444 0 1.68 0H14.32C14.7656 0 15.1929 0.182732 15.5079 0.507998C15.823 0.833264 16 1.27442 16 1.73441V5.50608ZM1.06667 4.40486H14.9333V1.73441C14.9333 1.56648 14.8687 1.40542 14.7537 1.28668C14.6387 1.16793 14.4827 1.10122 14.32 1.10122H1.68C1.51733 1.10122 1.36133 1.16793 1.24631 1.28668C1.13129 1.40542 1.06667 1.56648 1.06667 1.73441V4.40486Z" fill="#A5A5A5"/>
<path d="M8.31409 0.302663L6.84167 4.77563L7.85161 5.12997L9.32403 0.657001L8.31409 0.302663Z" fill="#A5A5A5"/>
<path d="M12.4239 0.301666L10.9523 4.7749L11.9623 5.12906L13.4339 0.655822L12.4239 0.301666Z" fill="#A5A5A5"/>
<path d="M4.0359 0.304861L2.56348 4.77783L3.57342 5.13217L5.04583 0.659199L4.0359 0.304861Z" fill="#A5A5A5"/>
<path d="M0.533325 4.95532V12.5812C0.533325 12.8952 0.654134 13.1963 0.869176 13.4183C1.08422 13.6403 1.37588 13.765 1.67999 13.765H14.32C14.6241 13.765 14.9158 13.6403 15.1308 13.4183C15.3458 13.1963 15.4667 12.8952 15.4667 12.5812V4.95532H0.533325ZM10.016 9.36019L7.11466 11.3093C7.10589 11.3152 7.09575 11.3186 7.08529 11.3191C7.07484 11.3196 7.06445 11.3172 7.0552 11.3121C7.04595 11.3071 7.03818 11.2995 7.03269 11.2903C7.0272 11.2811 7.0242 11.2706 7.02399 11.2598V7.40553C7.0242 7.39472 7.0272 7.38418 7.03269 7.37497C7.03818 7.36577 7.04595 7.35826 7.0552 7.3532C7.06445 7.34814 7.07484 7.34574 7.08529 7.34622C7.09575 7.34671 7.10589 7.35008 7.11466 7.35597L10.016 9.28861C10.0218 9.29427 10.0264 9.3011 10.0296 9.30867C10.0328 9.31624 10.0344 9.32441 10.0344 9.33265C10.0344 9.3409 10.0328 9.34907 10.0296 9.35664C10.0264 9.36421 10.0218 9.37104 10.016 9.3767V9.36019Z" fill="#A5A5A5"/>
</svg>
