<svg width="15" height="17" viewBox="0 0 15 17" fill="none" xmlns="http://www.w3.org/2000/svg">
<path d="M14.9933 11.343V0.947439C14.9927 0.805488 14.9603 0.665508 14.8986 0.537894C14.8368 0.41028 14.7474 0.298311 14.6368 0.210302C14.5278 0.121488 14.4004 0.0584081 14.264 0.0256994C14.1276 -0.00700931 13.9857 -0.00851499 13.8486 0.0212929L5.4043 1.91139C5.19584 1.95874 5.00967 2.07635 4.87659 2.24476C4.74351 2.41317 4.6715 2.62229 4.67246 2.83753V10.7192C4.03194 10.4147 3.31064 10.3275 2.61677 10.4708C1.92289 10.6141 1.29386 10.9802 0.824036 11.5141C0.354211 12.048 0.0689265 12.7209 0.0109795 13.432C-0.0469674 14.143 0.125548 14.8538 0.502645 15.4577C0.879742 16.0616 1.44109 16.5261 2.10247 16.7815C2.76385 17.0368 3.48961 17.0693 4.17087 16.874C4.85213 16.6787 5.45215 16.2662 5.88092 15.6984C6.3097 15.1305 6.54411 14.4379 6.54898 13.7245C6.55869 13.5608 6.55869 13.3967 6.54898 13.2331V3.59357L13.1168 2.12875V8.82913C12.4759 8.52438 11.7542 8.43727 11.06 8.5809C10.3657 8.72453 9.73652 9.09115 9.2668 9.62568C8.79708 10.1602 8.51222 10.8338 8.45499 11.5453C8.39776 12.2568 8.57125 12.9678 8.94941 13.5716C9.32758 14.1753 9.88999 14.6391 10.5522 14.8935C11.2144 15.1478 11.9407 15.1788 12.6219 14.982C13.3031 14.7851 13.9026 14.3709 14.3302 13.8017C14.7578 13.2324 14.9905 12.5388 14.9933 11.8249C15.0022 11.6644 15.0022 11.5035 14.9933 11.343Z" fill="#A5A5A5"/>
</svg>
