<svg xmlns="http://www.w3.org/2000/svg" xmlns:xlink="http://www.w3.org/1999/xlink" width="500" zoomAndPan="magnify" viewBox="0 0 375 374.999991" height="500" preserveAspectRatio="xMidYMid meet" version="1.0"><defs><clipPath id="d5b1528e26"><path d="M 187.5 0 C 83.945312 0 0 83.945312 0 187.5 C 0 291.054688 83.945312 375 187.5 375 C 291.054688 375 375 291.054688 375 187.5 C 375 83.945312 291.054688 0 187.5 0 Z M 187.5 0 " clip-rule="nonzero"/></clipPath><clipPath id="0f2a4414a8"><path d="M 25.636719 25.636719 L 349.363281 25.636719 L 349.363281 349.363281 L 25.636719 349.363281 Z M 25.636719 25.636719 " clip-rule="nonzero"/></clipPath><clipPath id="22194c6f1c"><path d="M 187.5 25.636719 C 98.105469 25.636719 25.636719 98.105469 25.636719 187.5 C 25.636719 276.894531 98.105469 349.363281 187.5 349.363281 C 276.894531 349.363281 349.363281 276.894531 349.363281 187.5 C 349.363281 98.105469 276.894531 25.636719 187.5 25.636719 Z M 187.5 25.636719 " clip-rule="nonzero"/></clipPath><clipPath id="ba590df926"><path d="M 44.488281 44.488281 L 330.238281 44.488281 L 330.238281 330.238281 L 44.488281 330.238281 Z M 44.488281 44.488281 " clip-rule="nonzero"/></clipPath><clipPath id="87bd72f160"><path d="M 162.84375 162.84375 L 212.15625 162.84375 L 212.15625 212.15625 L 162.84375 212.15625 Z M 162.84375 162.84375 " clip-rule="nonzero"/></clipPath><clipPath id="94d0364a43"><path d="M 187.5 162.84375 C 173.882812 162.84375 162.84375 173.882812 162.84375 187.5 C 162.84375 201.117188 173.882812 212.15625 187.5 212.15625 C 201.117188 212.15625 212.15625 201.117188 212.15625 187.5 C 212.15625 173.882812 201.117188 162.84375 187.5 162.84375 Z M 187.5 162.84375 " clip-rule="nonzero"/></clipPath></defs><g clip-path="url(#d5b1528e26)"><rect x="-37.5" width="450" fill="#000000" y="-37.499999" height="449.999989" fill-opacity="1"/></g><g clip-path="url(#0f2a4414a8)"><g clip-path="url(#22194c6f1c)"><path fill="#ffffff" d="M 25.636719 25.636719 L 349.363281 25.636719 L 349.363281 349.363281 L 25.636719 349.363281 Z M 25.636719 25.636719 " fill-opacity="1" fill-rule="nonzero"/></g></g><g clip-path="url(#ba590df926)"><path fill="#000000" d="M 140.992188 226.238281 C 143.066406 224.167969 146.414062 224.167969 148.488281 226.238281 C 150.5625 228.308594 150.5625 231.664062 148.488281 233.734375 L 139.476562 242.75 L 187.367188 330.324219 L 235.261719 242.753906 L 226.769531 234.261719 C 224.695312 232.1875 224.695312 228.832031 226.769531 226.765625 C 228.84375 224.691406 232.191406 224.691406 234.265625 226.765625 L 242.753906 235.253906 L 330.335938 187.351562 L 242.757812 139.460938 L 233.730469 148.488281 C 232.695312 149.523438 231.339844 150.042969 229.984375 150.042969 C 228.625 150.042969 227.269531 149.523438 226.234375 148.488281 C 224.160156 146.414062 224.160156 143.058594 226.234375 140.992188 L 235.261719 131.964844 L 187.367188 44.386719 L 139.46875 131.972656 L 148.488281 140.992188 C 150.5625 143.066406 150.5625 146.421875 148.488281 148.488281 C 147.453125 149.523438 146.097656 150.042969 144.738281 150.042969 C 143.382812 150.042969 142.027344 149.523438 140.992188 148.488281 L 131.972656 139.464844 L 44.402344 187.359375 L 131.980469 235.257812 L 140.992188 226.246094 Z M 187.097656 151.027344 C 207.28125 151.027344 223.695312 167.445312 223.695312 187.625 C 223.695312 207.800781 207.277344 224.21875 187.097656 224.21875 C 166.921875 224.21875 150.503906 207.800781 150.503906 187.625 C 150.503906 167.445312 166.921875 151.027344 187.097656 151.027344 Z M 187.097656 151.027344 " fill-opacity="1" fill-rule="nonzero"/></g><g clip-path="url(#87bd72f160)"><g clip-path="url(#94d0364a43)"><path fill="#000000" d="M 162.84375 162.84375 L 212.15625 162.84375 L 212.15625 212.15625 L 162.84375 212.15625 Z M 162.84375 162.84375 " fill-opacity="1" fill-rule="nonzero"/></g></g></svg>