<svg width="65" height="63" viewBox="0 0 65 63" fill="none" xmlns="http://www.w3.org/2000/svg">
<path d="M32.5 0C14.5543 0 0 14.1065 0 31.5C0 48.8935 14.5543 63 32.5 63C50.4457 63 65 48.8935 65 31.5C65 14.1065 50.4457 0 32.5 0ZM35.1141 57.3848C34.9728 57.3848 34.8315 57.3848 34.6196 57.4533V42.5935C38.2935 42.525 41.6141 42.4565 44.6522 42.2511C41.9674 50.263 36.9511 55.6044 35.1141 57.3848ZM29.8859 57.3848C27.9783 55.5359 23.0326 50.1946 20.3478 42.2511C23.3152 42.4565 26.7065 42.5935 30.3804 42.5935V57.4533C30.2391 57.4533 30.0978 57.3848 29.8859 57.3848ZM5.65217 31.5C5.65217 29.788 5.86413 28.0761 6.14674 26.4326C7.70109 26.1587 10.6685 25.7478 14.837 25.337C14.4837 27.3228 14.2717 29.3772 14.2717 31.5685C14.2717 33.7598 14.4837 35.8141 14.7663 37.7315C10.6685 37.3207 7.63044 36.9098 6.07609 36.6359C5.86413 34.9239 5.65217 33.212 5.65217 31.5ZM18.5815 31.5C18.5815 29.1717 18.8641 26.9804 19.288 24.9261C22.538 24.7207 26.212 24.5152 30.3804 24.5152V38.4848C26.2826 38.4163 22.538 38.2793 19.2174 38.0054C18.8641 36.0196 18.5815 33.8283 18.5815 31.5ZM35.0435 5.61522C36.9511 7.46413 41.8261 12.9424 44.5815 20.7489C41.6141 20.5435 38.2935 20.4065 34.6196 20.4065V5.54674C34.7609 5.54674 34.9022 5.61522 35.0435 5.61522ZM30.3804 5.54674V20.4065C26.7065 20.475 23.3859 20.5435 20.4185 20.7489C23.1033 12.9424 28.0489 7.46413 29.8859 5.61522C30.0978 5.61522 30.2391 5.54674 30.3804 5.54674ZM34.6196 38.4848V24.5152C38.7174 24.5837 42.462 24.7207 45.712 24.9261C46.1359 26.9804 46.4185 29.1717 46.4185 31.5C46.4185 33.8283 46.2065 36.0196 45.7826 38.0739C42.5326 38.2793 38.788 38.4163 34.6196 38.4848ZM50.0924 25.337C54.2609 25.7478 57.2283 26.1587 58.7826 26.4326C59.1359 28.0761 59.3478 29.788 59.3478 31.5C59.3478 33.212 59.1359 34.9239 58.8533 36.5674C57.2989 36.8413 54.3315 37.2522 50.163 37.663C50.5163 35.6772 50.6576 33.6228 50.6576 31.4315C50.6576 29.3772 50.4457 27.2543 50.0924 25.337ZM57.5109 22.05C55.5326 21.7761 52.7065 21.4337 49.1033 21.0913C47.4076 15.2022 44.4402 10.4772 41.9674 7.12174C49.1033 9.72391 54.7554 15.2022 57.5109 22.05ZM23.0326 7.12174C20.4891 10.4087 17.5924 15.1337 15.8967 21.0228C12.3641 21.2967 9.53804 21.7076 7.48913 21.9815C10.2446 15.2022 15.9674 9.72391 23.0326 7.12174ZM7.48913 40.95C9.46739 41.2239 12.2935 41.5663 15.8261 41.9087C17.5217 47.7978 20.3478 52.5228 22.8913 55.8098C15.8261 53.1391 10.2446 47.7293 7.48913 40.95ZM42.1087 55.8098C44.6522 52.5228 47.4783 47.8663 49.1739 41.9772C52.7065 41.7033 55.5326 41.2924 57.5109 41.0185C54.7554 47.7294 49.1739 53.1391 42.1087 55.8098Z" fill="#F4F4F4"/>
</svg>
