<svg width="20" height="16" viewBox="0 0 20 16" fill="none" xmlns="http://www.w3.org/2000/svg">
<path d="M15.7933 0L17.7675 4H14.8063L12.8321 0H10.8579L12.8321 4H9.87084L7.89667 0H5.9225L7.89667 4H4.93542L2.96125 0H1.97417C0.88344 0 0.00987083 0.895 0.00987083 2L0 14C0 15.105 0.88344 16 1.97417 16H17.7675C18.8582 16 19.7417 15.105 19.7417 14V0H15.7933Z" fill="#A5A5A5"/>
<path d="M15.7933 0L17.7675 4H14.8063L12.8321 0H10.8579L12.8321 4H9.87084L7.89667 0H5.9225L7.89667 4H4.93542L2.96125 0H1.97417C0.88344 0 0.00987083 0.895 0.00987083 2L0 14C0 15.105 0.88344 16 1.97417 16H17.7675C18.8582 16 19.7417 15.105 19.7417 14V0H15.7933Z" fill="#A5A5A5"/>
</svg>
