<svg width="22" height="16" viewBox="0 0 22 16" fill="none" xmlns="http://www.w3.org/2000/svg">
<path d="M6.16046 0C5.07057 0 4.14727 0.500292 3.51864 1.21094C2.88923 1.92159 2.50577 2.81897 2.25981 3.74234L0.10676 11.8116C-0.340352 13.4866 0.658382 15.2262 2.32739 15.6753C3.19569 15.9093 4.02076 15.6091 4.58024 15.1789C5.13972 14.748 5.55147 14.224 5.9758 13.7986L8.71348 11.049H13.2883L16.0268 13.7986C16.4503 14.224 16.8597 14.748 17.42 15.1789C17.9795 15.6091 18.8045 15.9093 19.6728 15.6753C20.4768 15.4556 21.1615 14.9262 21.5778 14.2025C21.9941 13.4787 22.1081 12.6193 21.895 11.8116L19.742 3.74234C19.496 2.81897 19.111 1.92238 18.4824 1.21094C17.853 0.500292 16.9297 0 15.839 0H6.16046ZM7.435 3.17744C7.87268 3.18532 8.22079 3.54301 8.21293 3.97791V4.75474H8.98772C9.09245 4.75295 9.19647 4.77222 9.29365 4.81144C9.39082 4.85065 9.47916 4.90901 9.55344 4.98305C9.62773 5.05709 9.68645 5.14532 9.72614 5.24251C9.76583 5.3397 9.78567 5.44389 9.7845 5.54891C9.77664 5.98775 9.42147 6.3344 8.98772 6.32889H8.21293V7.10572C8.22865 8.1717 6.62643 8.1717 6.64136 7.10572V6.32889H5.86657C4.80419 6.34465 4.80419 4.73977 5.86657 4.75474H6.64136V3.97791C6.63967 3.87273 6.65902 3.76827 6.69825 3.6707C6.73747 3.57313 6.79579 3.48442 6.86977 3.40982C6.94374 3.33521 7.03186 3.27621 7.12894 3.2363C7.22602 3.19639 7.33009 3.17638 7.435 3.17744ZM14.5228 3.17744C15.8154 3.17744 16.8802 4.245 16.8802 5.54103C16.8802 6.83706 15.8154 7.90461 14.5228 7.90461C13.2302 7.90461 12.1654 6.83706 12.1654 5.54103C12.1654 4.245 13.2302 3.17744 14.5228 3.17744Z" fill="#A5A5A5"/>
<path d="M14.5227 4.75293C14.9659 4.75293 15.3085 5.09644 15.3085 5.54079C15.3085 5.98514 14.9659 6.32865 14.5227 6.32865C14.0788 6.32865 13.7369 5.98514 13.7369 5.54079C13.7369 5.09644 14.0788 4.75293 14.5227 4.75293Z" fill="#A5A5A5"/>
</svg>
