<svg width="19" height="16" viewBox="0 0 19 16" fill="none" xmlns="http://www.w3.org/2000/svg">
<path d="M3.25805 13.9979C2.13801 13.9983 1.02968 14.231 0 14.6819V0.946859C1.26271 0.1702 2.74661 -0.142568 4.20657 0.0602242C5.66652 0.263016 7.01519 0.969235 8.02976 2.06221L8.59524 2.66664V16C7.10293 14.7091 5.21233 13.9999 3.25805 13.9979ZM19 14.6819C17.5889 14.0637 16.0375 13.8595 14.5194 14.0923C13.0014 14.3251 11.5766 14.9857 10.4048 16V2.66664L10.9711 2.06221C11.9858 0.969754 13.3343 0.263885 14.794 0.0611091C16.2537 -0.141666 17.7373 0.170773 19 0.946859V14.6819Z" fill="#A5A5A5"/>
</svg>
